HIERARCHY
ROOT Hips
{
	OFFSET -3.958830 18.904000 13.208200
	CHANNELS 6 Xposition Yposition Zposition Zrotation Yrotation Xrotation 
	JOINT LHipJoint
	{
		OFFSET 0.000000 0.000000 0.000000
		CHANNELS 3 Zrotation Yrotation Xrotation
		JOINT LeftUpLeg
		{
			OFFSET 1.800000 -1.400000 0.085000
			CHANNELS 3 Zrotation Yrotation Xrotation
			JOINT LeftLeg
			{
				OFFSET 2.215000 -6.000000 0.000000
				CHANNELS 3 Zrotation Yrotation Xrotation
				JOINT LeftFoot
				{
					OFFSET 2.500000 -6.900000 0.000000
					CHANNELS 3 Zrotation Yrotation Xrotation
					JOINT LeftToeBase
					{
						OFFSET 0.200000 -0.500000 1.950000
						CHANNELS 3 Zrotation Yrotation Xrotation
						End Site
						{
							OFFSET 0.000000 0.000000 0.000000
						}
					}
				}
			}
		}
	}
	JOINT RHipJoint
	{
		OFFSET 0.000000 0.000000 0.000000
		CHANNELS 3 Zrotation Yrotation Xrotation
		JOINT RightUpLeg
		{
			OFFSET -1.800000 -1.400000 0.085000
			CHANNELS 3 Zrotation Yrotation Xrotation
			JOINT RightLeg
			{
				OFFSET -2.215000 -6.000000 0.000000
				CHANNELS 3 Zrotation Yrotation Xrotation
				JOINT RightFoot
				{
					OFFSET -2.500000 -6.900000 0.000000
					CHANNELS 3 Zrotation Yrotation Xrotation
					JOINT RightToeBase
					{
						OFFSET -0.200000 -0.500000 1.950000
						CHANNELS 3 Zrotation Yrotation Xrotation
						End Site
						{
							OFFSET 0.000000 0.000000 0.000000
						}
					}
				}
			}
		}
	}
	JOINT LowerBack
	{
		OFFSET 0.000000 0.000000 0.000000
		CHANNELS 3 Zrotation Yrotation Xrotation
		JOINT Spine
		{
			OFFSET -0.087000 1.940000 -0.288900
			CHANNELS 3 Zrotation Yrotation Xrotation
			JOINT Spine1
			{
				OFFSET 0.000000 1.950000 0.060000
				CHANNELS 3 Zrotation Yrotation Xrotation
				JOINT Neck
				{
					OFFSET 0.000000 0.000000 0.000000
					CHANNELS 3 Zrotation Yrotation Xrotation
					JOINT Neck1
					{
						OFFSET 0.000000 1.600000 0.340000
						CHANNELS 3 Zrotation Yrotation Xrotation
						JOINT Head
						{
							OFFSET 0.000000 1.667000 -0.240000
							CHANNELS 3 Zrotation Yrotation Xrotation
							End Site
							{
								OFFSET 0.000000 0.000000 0.000000
							}
						}
					}
				}
				JOINT LeftShoulder
				{
					OFFSET 0.000000 0.000000 0.000000
					CHANNELS 3 Zrotation Yrotation Xrotation
					JOINT LeftArm
					{
						OFFSET 2.700000 1.550000 -0.730000
						CHANNELS 3 Zrotation Yrotation Xrotation
						JOINT LeftForeArm
						{
							OFFSET 5.450000 0.000000 0.000000
							CHANNELS 3 Zrotation Yrotation Xrotation
							JOINT LeftHand
							{
								OFFSET 3.450000 0.000000 0.000000
								CHANNELS 3 Zrotation Yrotation Xrotation
								JOINT LeftHandIndex1
								{
									OFFSET 0.750000 0.000000 0.000000
									CHANNELS 3 Zrotation Yrotation Xrotation
									End Site
									{
										OFFSET 0.000000 0.000000 0.000000
									}
								}
							}
						}
					}
				}
				JOINT RightShoulder
				{
					OFFSET 0.000000 0.000000 0.000000
					CHANNELS 3 Zrotation Yrotation Xrotation
					JOINT RightArm
					{
						OFFSET -2.700000 1.550000 -0.730000
						CHANNELS 3 Zrotation Yrotation Xrotation
						JOINT RightForeArm
						{
							OFFSET -5.450000 0.000000 0.000000
							CHANNELS 3 Zrotation Yrotation Xrotation
							JOINT RightHand
							{
								OFFSET -3.450000 0.000000 0.000000
								CHANNELS 3 Zrotation Yrotation Xrotation
								JOINT RightHandIndex1
								{
									OFFSET -0.750000 0.000000 0.000000
									CHANNELS 3 Zrotation Yrotation Xrotation
									End Site
									{
										OFFSET 0.000000 0.000000 0.000000
									}
								}
							}
						}
					}
				}
			}
		}
	}
}
MOTION
Frames: 10
Frame Time: 0.016667
-4.954220 15.839740 3.388930 -8.567226 -15.881148 -16.319352 -15.673383 13.088800 3.577947 -2.192762 -4.830785 -16.118572 -15.616871 15.767256 39.179569 0.705814 8.321004 1.672739 0.637680 0.322160 0.454960 17.762538 -7.961864 5.089528 -30.841306 10.077949 -20.101250 62.749486 -32.783422 35.439357 -2.556122 -10.942644 0.844275 0.008770 -0.332820 -0.064080 -1.998219 -5.417165 -9.936595 9.924658 -1.117165 39.843750 -6.531098 3.827912 -3.471255 7.301985 -2.560342 -26.924724 -9.202954 -10.224602 56.649729 7.381540 -18.695900 -29.814570 -32.443256 -25.683149 7.997084 -9.816297 11.601202 -7.354288 38.644153 -16.846270 -5.543512 -3.189601 3.051189 0.985580 -0.587400 0.347090 0.204250 18.536742 40.374440 16.158298 5.940799 18.869001 -10.812636 -26.216100 1.223734 -2.223010 2.930097 -1.249680 -0.074630 0.221890 -0.270610 -0.178570 
-5.008850 15.712820 3.385670 -9.879590 -16.303098 -15.704340 -15.775384 13.073317 3.584226 -0.149140 -4.859890 -17.645751 -16.914251 16.921372 39.945380 0.757221 8.768333 1.542219 0.608740 0.298560 0.424720 17.688557 -7.663443 5.265821 -33.453237 9.645374 -21.630365 70.074988 -36.197530 34.126465 -2.640178 -11.130915 0.832290 0.022180 -0.272170 -0.081400 -1.745880 -5.887181 -10.127707 9.682716 -0.845244 38.954044 -4.813076 3.828154 0.212418 8.172397 -3.537997 -28.675062 -10.661664 -10.196379 54.227757 5.844940 -19.182680 -28.197150 -32.764668 -27.240515 7.364866 -9.491740 13.123736 -9.429815 42.184935 -21.440907 -8.045394 -3.308944 3.097525 0.948380 -0.537320 0.296740 0.214560 17.973801 43.647735 17.984872 2.751763 18.097122 -13.490422 -27.867735 -2.524146 -2.162252 3.070454 -1.348305 -0.111160 0.263880 -0.251880 -0.171100 
-5.049400 15.619580 3.381550 -11.235773 -16.252676 -16.003607 -15.775331 13.097806 3.582854 1.021993 -4.979737 -18.424324 -15.953433 17.421375 42.237553 0.871797 9.116197 1.434472 0.632740 0.344290 0.383540 17.690909 -7.562779 5.383881 -35.482740 9.121586 -22.688811 75.641173 -40.280631 34.213586 -2.729291 -11.325623 0.809853 0.041260 -0.241350 -0.077600 -1.742799 -6.166922 -10.191368 10.724987 -2.304164 38.851089 -4.979341 3.058455 4.156486 9.182614 -5.531224 -30.459477 -14.673461 -8.175697 52.588250 7.724150 -19.589240 -27.627740 -31.819692 -27.913681 6.870000 -8.718913 12.304355 -9.278305 41.134759 -13.096411 -5.693867 -3.405496 3.190578 0.883480 -0.526330 0.270000 0.250470 15.899939 46.277540 19.394553 0.415294 16.219296 -16.103802 -29.404280 -3.689294 -2.585743 3.192529 -1.499755 -0.072090 0.247580 -0.270080 -0.121560 
-5.069000 15.560160 3.421620 -12.642730 -16.392852 -13.888924 -15.779386 12.945671 3.698057 2.859989 -5.276207 -20.773790 -16.931914 18.303818 43.084237 0.891027 9.460745 1.284932 0.626770 0.319700 0.416540 17.703271 -7.525888 5.358757 -35.412476 8.594156 -23.990608 77.491903 -42.298758 34.114539 -2.754388 -11.397708 0.786085 0.033630 -0.277060 -0.064450 -1.764214 -6.000860 -10.271972 12.944292 -1.723284 36.980879 -4.917637 4.003811 -1.071573 8.251424 -4.301565 -27.342323 -12.336740 -9.602499 53.059522 4.812000 -19.514830 -25.819680 -32.218506 -25.669860 7.129387 -9.136461 11.497682 -8.038675 39.819959 -15.495190 -5.719651 -3.287669 3.113707 0.885910 -0.514850 0.268800 0.221500 17.368778 41.967701 16.919937 3.973662 14.872961 -14.308834 -31.121946 -0.289637 -2.976302 3.023325 -1.486252 -0.074410 0.208750 -0.265600 -0.154960 
-5.099640 15.551640 3.414000 -11.831055 -17.337631 -15.719036 -15.800053 13.055211 3.603562 2.128693 -4.633747 -19.281387 -16.089318 18.441136 43.889145 0.964129 9.538016 1.293088 0.652900 0.380110 0.394620 17.655880 -7.618494 5.302344 -34.490768 9.740308 -22.105118 74.355816 -42.704133 36.902893 -2.800804 -11.589818 0.753226 0.064210 -0.243150 -0.073420 -1.647648 -6.045747 -10.234668 10.907981 -0.973979 37.408970 -3.422435 3.699782 4.115398 9.233350 -5.995318 -29.789630 -15.285368 -7.979279 52.937978 6.005630 -19.588550 -26.606810 -30.261416 -26.521682 6.673943 -10.084493 10.875736 -8.565772 40.383756 -9.417319 -4.613269 -3.358866 3.129472 0.865000 -0.512910 0.279150 0.264600 14.737818 44.998706 18.930153 1.948554 14.347507 -17.057393 -32.524914 -3.611675 -3.048184 3.203839 -1.589916 -0.062020 0.255490 -0.287860 -0.113220 
-5.103990 15.553500 3.442990 -12.232275 -17.155651 -14.796691 -15.768298 12.996859 3.614162 2.008519 -4.788332 -19.806768 -15.338643 18.072887 44.235522 0.901268 9.525030 1.280479 0.615860 0.331100 0.371260 17.672694 -7.755834 5.255425 -33.670155 9.621750 -21.633438 74.658501 -43.573897 37.041671 -2.796275 -11.653616 0.734766 0.048870 -0.210810 -0.033610 -1.715346 -5.740031 -10.214794 11.623598 -0.649756 35.697782 -3.327731 4.075494 2.511805 8.693492 -5.295996 -28.225122 -13.427471 -8.696863 52.398529 3.769630 -19.099310 -24.550240 -30.076257 -25.452264 6.673290 -10.254205 10.933162 -8.184450 40.440018 -10.413129 -4.802305 -3.396766 3.101163 0.845000 -0.454900 0.250780 0.241540 15.071947 42.873664 17.915257 2.520121 13.443345 -15.290182 -31.355143 -4.101421 -2.519471 3.151059 -1.525116 -0.066580 0.241850 -0.234620 -0.128950 
-5.083510 15.602800 3.478710 -12.911552 -17.613834 -12.232567 -15.741484 12.904523 3.616519 2.205198 -4.721676 -21.252565 -15.235083 17.448678 42.922861 0.704532 9.321601 1.318649 0.547440 0.216910 0.417620 17.697354 -7.857641 5.206761 -30.975208 10.049882 -22.135540 72.539532 -43.182188 37.838157 -2.814589 -11.795592 0.676679 0.004980 -0.188550 0.056940 -1.787361 -5.285220 -10.165604 12.739409 0.977874 33.165343 -3.404755 5.881080 -4.209265 7.316986 -1.490556 -23.844319 -6.241546 -12.067543 51.731251 -3.305540 -17.231270 -22.014560 -31.473848 -23.024788 6.903357 -8.167699 11.666011 -6.437561 38.108088 -17.520839 -5.678316 -3.428568 2.925161 0.877590 -0.361520 0.260500 0.174930 17.650730 36.390778 14.941784 6.306198 12.722152 -11.912512 -31.187403 1.041712 -2.708362 2.811262 -1.386435 -0.101330 0.243780 -0.149230 -0.201000 
-5.075550 15.702840 3.446330 -11.997220 -17.488187 -13.718591 -15.786438 13.150210 3.441513 0.706435 -4.231447 -18.949059 -12.981922 15.756473 41.798013 0.531498 8.719305 1.508353 0.589430 0.256420 0.481960 17.618193 -8.063847 5.016003 -27.415127 10.650412 -18.748288 66.594074 -40.619552 39.747983 -2.783343 -11.829993 0.655871 0.051510 -0.224570 0.013720 -1.585828 -5.325221 -9.981065 10.257173 2.269063 33.834553 -1.673635 6.287824 -2.541185 7.431284 -1.022675 -23.829441 -4.828940 -12.641410 51.994302 -3.474240 -16.943300 -22.585370 -31.457987 -23.520493 6.299583 -6.744003 12.616925 -8.025087 40.246798 -29.547408 -9.814740 -3.335682 2.913529 0.897780 -0.380410 0.260200 0.161240 17.670592 37.073650 15.515760 4.152593 12.436443 -11.634301 -29.517725 -2.506800 -1.827945 2.910708 -1.345179 -0.130510 0.267630 -0.174380 -0.238920 
-5.072420 15.850970 3.421500 -10.570070 -17.036872 -14.600559 -15.800205 13.483642 3.356826 -2.168512 -3.896935 -16.921583 -9.381379 13.168358 39.995997 0.299764 7.864497 1.815919 0.525560 0.185400 0.399440 17.559359 -8.258989 4.856450 -23.802909 11.232471 -15.338380 59.811554 -39.313657 43.442577 -2.792441 -12.055180 0.605684 0.025520 -0.143390 0.018070 -1.447277 -5.607356 -9.879034 8.353484 2.993546 33.710402 -0.671204 6.453325 -2.539543 7.701211 -2.793166 -24.657838 -8.906223 -9.820889 55.519282 -3.172530 -17.119310 -22.467430 -31.651694 -23.292057 5.702411 -4.851943 10.895375 -7.143183 36.933620 -27.033531 -8.147422 -3.387290 2.824411 0.927430 -0.361760 0.239100 0.159600 18.360413 38.011181 16.304979 2.823548 11.159524 -11.350231 -28.094430 -4.278335 -1.170732 2.938944 -1.210297 -0.170020 0.345090 -0.088200 -0.221610 
-5.043810 15.994450 3.423320 -11.386628 -16.503462 -12.502067 -15.712512 13.668279 3.333234 -1.566740 -3.370928 -16.671392 -9.527182 11.823841 35.747366 0.146212 7.044446 2.099805 0.486790 0.139210 0.368450 17.593150 -8.533570 4.736573 -18.670482 11.369326 -13.740923 54.581526 -35.440016 43.268130 -2.678177 -11.810229 0.680926 -0.013100 -0.120300 0.042420 -1.589799 -5.431060 -9.793934 9.992922 2.696156 31.778459 -1.022319 7.341454 -6.866276 7.101169 -2.796052 -22.772732 -9.726292 -8.903621 56.842787 -4.670410 -16.444470 -19.791720 -31.465011 -20.819415 5.424606 -4.162720 9.230421 -4.932015 33.040277 -21.886521 -5.456063 -3.402387 2.751217 0.894580 -0.331300 0.223260 0.156310 19.293526 34.535529 14.994210 3.303465 10.546485 -9.012489 -26.208193 -3.905416 -0.603481 2.876976 -1.127421 -0.153080 0.318720 -0.067560 -0.207330 
